<?xml version="1.0" encoding="UTF-8" standalone="no"?>
<!-- Created with Inkscape (http://www.inkscape.org/) -->

<svg
   xmlns:dc="http://purl.org/dc/elements/1.1/"
   xmlns:cc="http://creativecommons.org/ns#"
   xmlns:rdf="http://www.w3.org/1999/02/22-rdf-syntax-ns#"
   xmlns:svg="http://www.w3.org/2000/svg"
   xmlns="http://www.w3.org/2000/svg"
   xmlns:sodipodi="http://sodipodi.sourceforge.net/DTD/sodipodi-0.dtd"
   xmlns:inkscape="http://www.inkscape.org/namespaces/inkscape"
   width="800"
   height="600"
   viewBox="0 0 800 600"
   id="svg2"
   version="1.1"
   inkscape:version="0.91 r13725"
   inkscape:export-filename="/home/martin/programming/deskbox/cura-build/mac/background.png"
   inkscape:export-xdpi="90"
   inkscape:export-ydpi="90"
   sodipodi:docname="background.svg">
  <defs
     id="defs4">
    <clipPath
       id="clipPath16"
       clipPathUnits="userSpaceOnUse">
      <path
         inkscape:connector-curvature="0"
         id="path18"
         d="m 259.231,305.009 c -5.835,0 -10.566,-4.73 -10.566,-10.566 l 0,0 0,-76.818 c 0,-5.835 4.731,-10.566 10.566,-10.566 l 0,0 76.817,0 c 5.836,0 10.567,4.731 10.567,10.566 l 0,0 0,76.818 c 0,5.836 -4.731,10.566 -10.567,10.566 l 0,0 -76.817,0 z" />
    </clipPath>
    <linearGradient
       id="linearGradient24"
       spreadMethod="pad"
       gradientTransform="matrix(97.949882,0,0,-97.949882,248.66504,256.03433)"
       gradientUnits="userSpaceOnUse"
       y2="0"
       x2="1"
       y1="0"
       x1="0">
      <stop
         id="stop26"
         offset="0"
         style="stop-opacity:1;stop-color:#bf1e2d" />
      <stop
         id="stop28"
         offset="1"
         style="stop-opacity:1;stop-color:#ed1c24" />
    </linearGradient>
    <clipPath
       id="clipPath36"
       clipPathUnits="userSpaceOnUse">
      <path
         inkscape:connector-curvature="0"
         id="path38"
         d="m 0,425.2 595.28,0 L 595.28,0 0,0 0,425.2 Z" />
    </clipPath>
  </defs>
  <sodipodi:namedview
     id="base"
     pagecolor="#ffffff"
     bordercolor="#666666"
     borderopacity="1.0"
     inkscape:pageopacity="1"
     inkscape:pageshadow="2"
     inkscape:zoom="1"
     inkscape:cx="338.29276"
     inkscape:cy="305.60265"
     inkscape:document-units="px"
     inkscape:current-layer="layer1"
     showgrid="false"
     units="px"
     borderlayer="true"
     inkscape:window-width="1920"
     inkscape:window-height="1039"
     inkscape:window-x="0"
     inkscape:window-y="20"
     inkscape:window-maximized="0" />
  <metadata
     id="metadata7">
    <rdf:RDF>
      <cc:Work
         rdf:about="">
        <dc:format>image/svg+xml</dc:format>
        <dc:type
           rdf:resource="http://purl.org/dc/dcmitype/StillImage" />
        <dc:title />
      </cc:Work>
    </rdf:RDF>
  </metadata>
  <g
     inkscape:label="Layer 1"
     inkscape:groupmode="layer"
     id="layer1"
     transform="translate(0,-452.36216)">
    <flowRoot
       xml:space="preserve"
       id="flowRoot3428"
       style="fill:black;stroke:none;stroke-opacity:1;stroke-width:1px;stroke-linejoin:miter;stroke-linecap:butt;fill-opacity:1;font-family:Arial;font-style:normal;font-weight:bold;font-size:14px;line-height:125%;letter-spacing:0px;word-spacing:0px;-inkscape-font-specification:Arial Bold;font-stretch:normal;font-variant:normal;text-anchor:middle;text-align:center;writing-mode:lr"><flowRegion
         id="flowRegion3430"><rect
           id="rect3432"
           width="603"
           height="59"
           x="90"
           y="306" /></flowRegion><flowPara
         id="flowPara3434" /></flowRoot>    <flowRoot
       xml:space="preserve"
       id="flowRoot3436"
       style="font-style:normal;font-variant:normal;font-weight:bold;font-stretch:normal;font-size:17.5px;line-height:125%;font-family:Arial;-inkscape-font-specification:'Arial, Bold';text-align:center;letter-spacing:0px;word-spacing:0px;writing-mode:lr-tb;text-anchor:middle;fill:#666666;fill-opacity:1;stroke:none;stroke-width:1px;stroke-linecap:butt;stroke-linejoin:miter;stroke-opacity:1"
       transform="translate(4.880249,452.36216)"><flowRegion
         id="flowRegion3438"><rect
           id="rect3440"
           width="671"
           height="65"
           x="60"
           y="305"
           style="font-style:normal;font-variant:normal;font-weight:bold;font-stretch:normal;font-size:17.5px;line-height:125%;font-family:Arial;-inkscape-font-specification:'Arial, Bold';text-align:center;writing-mode:lr-tb;text-anchor:middle;fill:#666666" /></flowRegion><flowPara
         id="flowPara3442">Arraste o ícone até a pasta de Aplicativos para instalar.</flowPara></flowRoot>    <g
       transform="matrix(1.25,0,0,-1.25,27.69088,980.1002)"
       inkscape:label="deskbox-vermelho"
       id="g10">
      <g
         transform="translate(0.20720111,85.5907)"
         inkscape:export-ydpi="202.48"
         inkscape:export-xdpi="202.48"
         id="g12">
        <g
           clip-path="url(#clipPath16)"
           id="g14">
          <g
             id="g20">
            <g
               id="g22">
              <path
                 inkscape:connector-curvature="0"
                 id="path30"
                 style="fill:url(#linearGradient24);stroke:none"
                 d="m 259.231,305.009 c -5.835,0 -10.566,-4.73 -10.566,-10.566 l 0,0 0,-76.818 c 0,-5.835 4.731,-10.566 10.566,-10.566 l 0,0 76.817,0 c 5.836,0 10.567,4.731 10.567,10.566 l 0,0 0,76.818 c 0,5.836 -4.731,10.566 -10.567,10.566 l 0,0 -76.817,0 z" />
            </g>
          </g>
        </g>
      </g>
      <g
         transform="translate(0.20720111,85.5907)"
         inkscape:export-ydpi="202.48"
         inkscape:export-xdpi="202.48"
         id="g32">
        <g
           clip-path="url(#clipPath36)"
           id="g34">
          <g
             transform="translate(256.0075,146.1429)"
             id="g40">
            <path
               inkscape:connector-curvature="0"
               id="path42"
               style="fill:#414142;fill-opacity:1;fill-rule:nonzero;stroke:none"
               d="m 0,0 c -1.083,2.067 -2.545,3.87 -4.395,5.397 -1.845,1.527 -4.03,2.867 -6.543,4.012 -2.517,1.145 -5.239,2.231 -8.17,3.248 -2.801,1.016 -5.251,1.943 -7.353,2.772 -2.103,0.828 -3.853,1.733 -5.257,2.719 -1.4,0.987 -2.449,2.085 -3.151,3.301 -0.701,1.204 -1.05,2.702 -1.05,4.486 0,3.119 1.271,5.639 3.819,7.548 2.55,1.909 5.862,2.866 9.938,2.866 2.484,0 5.11,-0.27 7.882,-0.81 2.769,-0.541 5.779,-1.481 9.027,-2.819 0.447,-0.195 0.828,-0.035 1.145,0.475 l 1.815,4.494 c 0.256,0.698 0.064,1.173 -0.573,1.432 -3.121,1.462 -6.304,2.485 -9.553,3.055 -3.247,0.575 -6.433,0.862 -9.551,0.862 -3.44,0 -6.482,-0.428 -9.125,-1.291 -2.643,-0.858 -4.889,-2.068 -6.737,-3.63 -1.846,-1.562 -3.248,-3.424 -4.202,-5.592 -0.955,-2.161 -1.433,-4.522 -1.433,-7.065 0,-2.484 0.414,-4.634 1.243,-6.449 0.827,-1.815 2.085,-3.441 3.773,-4.874 1.688,-1.433 3.821,-2.738 6.399,-3.917 2.581,-1.176 5.62,-2.338 9.127,-3.483 5.667,-1.915 9.916,-3.935 12.751,-6.068 2.836,-2.137 4.251,-4.957 4.251,-8.456 0,-1.974 -0.428,-3.696 -1.289,-5.158 -0.86,-1.468 -2.005,-2.678 -3.439,-3.628 -1.354,-0.906 -4.372,-2.01 -9.291,-2.01 l -20.388,0 c -0.573,0 -0.955,-0.14 -1.149,-0.428 -0.187,-0.288 -0.285,-0.687 -0.285,-1.193 l 0,-3.153 c 0,-0.64 0.098,-1.069 0.285,-1.293 0.194,-0.223 0.576,-0.334 1.149,-0.334 l 23.152,0 c 7.036,0 10.187,2.132 12.26,3.729 2.067,1.592 3.676,3.53 4.822,5.827 1.148,2.29 1.72,4.968 1.72,8.022 C 1.624,-4.54 1.084,-2.073 0,0" />
          </g>
          <g
             transform="translate(208.7459,127.725)"
             id="g44">
            <path
               inkscape:connector-curvature="0"
               id="path46"
               style="fill:#414142;fill-opacity:1;fill-rule:nonzero;stroke:none"
               d="m 0,0 -25.634,0 c -2.961,0 -5.043,0.708 -6.246,2.128 -1.2,1.419 -1.803,3.299 -1.803,5.643 l 0,36.184 c 0,2.65 0.631,4.625 1.897,5.922 1.263,1.294 3.314,1.942 6.152,1.942 l 24.986,0 c 0.614,0 1.018,0.106 1.203,0.325 0.184,0.213 0.276,0.631 0.276,1.248 l 0,3.24 c 0,0.555 -0.092,0.97 -0.276,1.249 -0.185,0.275 -0.589,0.415 -1.203,0.415 l -25.077,0 c -2.716,0 -5.029,-0.401 -6.94,-1.203 -1.911,-0.802 -3.47,-1.898 -4.673,-3.285 -1.203,-1.388 -2.083,-3.024 -2.637,-4.905 -0.558,-1.882 -0.834,-3.87 -0.834,-5.967 l 0,-34.237 c 0,-2.1 0.248,-4.074 0.74,-5.922 0.492,-1.853 1.311,-3.47 2.455,-4.859 1.137,-1.388 2.679,-2.483 4.625,-3.285 1.942,-0.803 4.363,-1.203 7.264,-1.203 L 0,-6.57 c 0.614,0 1.018,0.139 1.2,0.415 0.188,0.278 0.279,0.694 0.279,1.252 l 0,3.236 c 0,0.618 -0.091,1.05 -0.279,1.297 C 1.018,-0.125 0.614,0 0,0" />
          </g>
          <g
             transform="translate(358.7567,149.8855)"
             id="g48">
            <path
               inkscape:connector-curvature="0"
               id="path50"
               style="fill:#414142;fill-opacity:1;fill-rule:nonzero;stroke:none"
               d="m 0,0 c -0.771,1.389 -1.761,2.654 -2.961,3.794 -1.203,1.142 -2.668,2.083 -4.398,2.822 l 0,0.558 c 1.975,1.232 3.61,2.975 4.904,5.228 1.298,2.25 1.946,4.579 1.946,6.986 0,2.961 -0.523,5.49 -1.573,7.586 -1.05,2.096 -2.469,3.826 -4.258,5.182 -1.789,1.357 -3.886,2.344 -6.292,2.961 -2.406,0.618 -4.995,0.927 -7.771,0.927 l -24.061,0 c -2.528,0 -4.164,-0.509 -4.904,-1.527 -0.742,-1.019 -1.112,-2.545 -1.112,-4.582 l 0,-8.883 27.512,0 c 1.411,0 2.531,-0.37 3.355,-1.11 0.828,-0.739 1.244,-1.82 1.244,-3.239 0,-1.789 -0.52,-2.993 -1.561,-3.607 -1.044,-0.617 -2.18,-0.927 -3.403,-0.927 l -27.147,0 0,-13.696 28.351,0 c 2.022,0 3.575,-0.569 4.647,-1.709 1.073,-1.144 1.613,-2.609 1.613,-4.398 0,-0.68 -0.094,-1.357 -0.279,-2.033 -0.182,-0.681 -0.52,-1.329 -1.012,-1.946 -0.49,-0.618 -1.132,-1.11 -1.931,-1.479 -0.8,-0.37 -1.813,-0.555 -3.038,-0.555 l -35.632,0 4.369,-8.977 c 0,-2.159 3.282,-3.718 4.024,-4.673 0.74,-0.956 2.376,-1.434 4.904,-1.434 l 24.061,0 c 3.205,0 6.184,0.478 8.929,1.434 2.744,0.955 5.134,2.315 7.17,4.073 2.037,1.758 3.624,3.854 4.768,6.292 1.138,2.435 1.712,5.134 1.712,8.095 0,1.482 -0.171,2.978 -0.512,4.488 C 1.325,-2.839 0.771,-1.388 0,0" />
          </g>
          <g
             transform="translate(205.1364,148.3781)"
             id="g52">
            <path
               inkscape:connector-curvature="0"
               id="path54"
               style="fill:#414142;fill-opacity:1;fill-rule:nonzero;stroke:none"
               d="m 0,0 c 0.554,0 0.924,0.14 1.112,0.418 0.182,0.276 0.276,0.663 0.276,1.155 l 0,3.055 C 1.388,5.245 1.294,5.661 1.112,5.877 0.924,6.093 0.554,6.201 0,6.201 l -26.666,0 0,-6.201 L 0,0 Z" />
          </g>
          <g
             transform="translate(167.7043,167.2818)"
             id="g56">
            <path
               inkscape:connector-curvature="0"
               id="path58"
               style="fill:#414142;fill-opacity:1;fill-rule:nonzero;stroke:none"
               d="m 0,0 c -1.235,3.98 -3.07,7.373 -5.504,10.18 -2.441,2.808 -5.461,4.95 -9.068,6.432 -3.612,1.479 -7.822,2.221 -12.635,2.221 L -43.491,18.74 c -1.664,0 -2.807,-0.37 -3.425,-1.11 -0.617,-0.743 -0.924,-1.821 -0.924,-3.24 l -0.017,-2.128 20.281,0 c 4.132,0 7.619,-0.679 10.455,-2.036 2.839,-1.357 5.106,-3.208 6.804,-5.553 1.695,-2.343 2.913,-5.073 3.655,-8.188 0.74,-3.115 1.109,-6.431 1.109,-9.947 0,-3.763 -0.369,-7.234 -1.109,-10.411 -0.742,-3.177 -1.96,-5.922 -3.655,-8.234 -1.698,-2.316 -3.919,-4.136 -6.661,-5.461 -2.748,-1.326 -6.127,-1.989 -10.135,-1.989 l -14.544,0 0,25.632 c 0,0.554 -0.136,0.924 -0.415,1.111 -0.279,0.186 -0.666,0.276 -1.155,0.276 l -3.055,0 c -0.619,0 -1.035,-0.09 -1.251,-0.276 -0.216,-0.187 -0.324,-0.557 -0.324,-1.111 l 0,-26.078 0.017,0 0,-1.869 c 0,-1.541 0.338,-2.637 1.018,-3.282 0.677,-0.649 1.786,-0.973 3.331,-0.973 l 17.212,0 c 4.75,0 8.897,0.802 12.446,2.406 3.544,1.605 6.477,3.84 8.79,6.707 2.315,2.87 4.039,6.324 5.182,10.366 1.141,4.038 1.712,8.495 1.712,13.371 C 1.851,-8.405 1.231,-3.979 0,0" />
          </g>
          <g
             transform="translate(309.5802,122.7272)"
             id="g60">
            <path
               inkscape:connector-curvature="0"
               id="path62"
               style="fill:#414142;fill-opacity:1;fill-rule:nonzero;stroke:none"
               d="m 0,0 -22.576,40.439 17.49,21.652 c 0.307,0.307 0.398,0.568 0.275,0.788 -0.121,0.213 -0.4,0.323 -0.833,0.323 l -5.737,0 c -1.171,0 -2.034,-0.341 -2.591,-1.017 l -19.154,-23.692 -5.763,-7.304 0,-10.82 11.315,14.055 18.969,-34.515 c 0.373,-0.679 0.743,-1.097 1.112,-1.251 0.37,-0.153 0.956,-0.23 1.758,-0.23 l 12.459,0 C 7.708,-1.572 0.495,-1.049 0,0" />
          </g>
          <g
             transform="translate(267.1073,184.7273)"
             id="g64">
            <path
               inkscape:connector-curvature="0"
               id="path66"
               style="fill:#414142;fill-opacity:1;fill-rule:nonzero;stroke:none"
               d="m 0,0 c 0,0.491 -0.091,0.816 -0.276,0.97 -0.185,0.154 -0.526,0.232 -1.018,0.232 l -4.44,0 C -6.166,1.202 -6.491,1.124 -6.707,0.97 -6.923,0.816 -7.031,0.491 -7.031,0 l 0,-62.369 c 0,-0.495 0.108,-0.82 0.324,-0.974 0.216,-0.152 0.541,-0.229 0.973,-0.229 l 4.44,0 c 0.492,0 0.833,0.077 1.018,0.229 0.185,0.154 0.276,0.479 0.276,0.974 L 0,0 Z" />
          </g>
          <g
             transform="translate(473.0306,183.7993)"
             id="g68">
            <path
               inkscape:connector-curvature="0"
               id="path70"
               style="fill:#ed1c24;fill-opacity:1;fill-rule:nonzero;stroke:none"
               d="m 0,0 c 0.369,0.495 0.477,0.987 0.324,1.482 -0.153,0.493 -0.663,0.74 -1.525,0.74 l -13.42,0 c -1.541,0 -2.605,-0.154 -3.191,-0.463 -0.586,-0.308 -1.155,-0.988 -1.712,-2.034 L -25.15,-10.996 -15.608,-25.602 0,0 Z" />
          </g>
          <g
             transform="translate(475.161,123.3761)"
             id="g72">
            <path
               inkscape:connector-curvature="0"
               id="path74"
               style="fill:#414142;fill-opacity:1;fill-rule:nonzero;stroke:none"
               d="m 0,0 -37.293,60.148 c -0.555,1.047 -1.126,1.726 -1.712,2.034 -0.586,0.309 -1.65,0.463 -3.192,0.463 l -13.417,0 c -0.865,0 -1.373,-0.247 -1.527,-0.739 -0.154,-0.495 -0.046,-0.988 0.324,-1.483 L -39.33,31.738 -58.945,0 c -0.31,-0.495 -0.358,-0.987 -0.139,-1.482 0.213,-0.494 0.6,-0.739 1.157,-0.739 l 14.621,0 c 1.354,0 2.344,0.184 2.958,0.554 0.62,0.37 1.266,1.113 1.945,2.221 l 8.978,16.842 8.879,-16.842 c 0.68,-1.108 1.329,-1.851 1.946,-2.221 0.615,-0.37 1.605,-0.554 2.961,-0.554 l 14.621,0 c 0.554,0 0.941,0.245 1.157,0.739 C 0.355,-0.987 0.307,-0.495 0,0" />
          </g>
          <g
             transform="translate(420.6423,167.3764)"
             id="g76">
            <path
               inkscape:connector-curvature="0"
               id="path78"
               style="fill:#414142;fill-opacity:1;fill-rule:nonzero;stroke:none"
               d="m 0,0 c -1.172,4.101 -2.975,7.603 -5.41,10.501 -2.44,2.899 -5.493,5.138 -9.165,6.71 -3.669,1.573 -8.004,2.358 -12.999,2.358 -4.812,0 -9.039,-0.785 -12.677,-2.358 -3.641,-1.572 -6.679,-3.825 -9.116,-6.756 -2.435,-2.929 -4.287,-6.462 -5.553,-10.595 -1.263,-4.133 -1.894,-8.729 -1.894,-13.786 0,-5.183 0.569,-9.842 1.712,-13.975 1.138,-4.133 2.882,-7.634 5.228,-10.502 2.344,-2.87 5.351,-5.06 9.023,-6.57 3.316,-1.365 7.213,-2.082 11.616,-2.213 l 0,15.812 c -1.206,0.196 -2.321,0.509 -3.242,1.069 -1.423,0.862 -2.56,2.082 -3.425,3.656 -0.865,1.573 -1.479,3.498 -1.849,5.782 -0.37,2.281 -0.557,4.842 -0.557,7.68 0,2.281 0.216,4.472 0.648,6.571 0.432,2.096 1.078,3.93 1.943,5.503 0.862,1.577 1.974,2.825 3.331,3.75 1.356,0.924 2.93,1.387 4.722,1.387 2.155,0 3.944,-0.477 5.364,-1.433 1.419,-0.958 2.531,-2.239 3.333,-3.84 0.8,-1.607 1.371,-3.501 1.713,-5.692 0.335,-2.19 0.537,-4.488 0.6,-6.895 0,-2.343 -0.171,-4.596 -0.509,-6.755 -0.342,-2.159 -0.91,-4.056 -1.712,-5.688 -0.803,-1.636 -1.884,-2.934 -3.237,-3.889 -1.041,-0.731 -2.276,-1.178 -3.709,-1.348 l 0,-15.647 c 4.369,0.179 8.22,0.902 11.479,2.236 3.761,1.541 6.833,3.763 9.208,6.663 2.375,2.899 4.116,6.415 5.228,10.548 1.112,4.132 1.664,8.792 1.664,13.974 C 1.758,-8.684 1.172,-4.105 0,0" />
          </g>
          <g
             transform="translate(324.9832,286.305)"
             id="g80">
            <path
               inkscape:connector-curvature="0"
               id="path82"
               style="fill:#ffffff;fill-opacity:1;fill-rule:nonzero;stroke:none"
               d="m 0,0 c 0.369,0.495 0.477,0.987 0.324,1.482 -0.153,0.493 -0.663,0.74 -1.525,0.74 l -13.42,0 c -1.541,0 -2.605,-0.154 -3.191,-0.463 -0.586,-0.308 -1.155,-0.988 -1.712,-2.034 L -25.15,-10.996 -15.608,-25.602 0,0 Z" />
          </g>
          <g
             transform="translate(327.1135,225.8818)"
             id="g84">
            <path
               inkscape:connector-curvature="0"
               id="path86"
               style="fill:#ffffff;fill-opacity:1;fill-rule:nonzero;stroke:none"
               d="m 0,0 -37.293,60.148 c -0.555,1.047 -1.126,1.726 -1.712,2.034 -0.586,0.309 -1.65,0.463 -3.192,0.463 l -13.417,0 c -0.865,0 -1.373,-0.247 -1.527,-0.739 -0.154,-0.495 -0.046,-0.988 0.324,-1.483 L -39.33,31.738 -58.944,0 c -0.311,-0.495 -0.359,-0.987 -0.14,-1.482 0.213,-0.494 0.6,-0.739 1.157,-0.739 l 14.621,0 c 1.354,0 2.344,0.184 2.958,0.554 0.62,0.37 1.266,1.113 1.945,2.221 l 8.978,16.842 8.879,-16.842 c 0.68,-1.108 1.329,-1.851 1.946,-2.221 0.615,-0.37 1.605,-0.554 2.961,-0.554 l 14.621,0 c 0.554,0 0.941,0.245 1.157,0.739 C 0.355,-0.987 0.307,-0.495 0,0" />
          </g>
        </g>
      </g>
    </g>
  </g>
</svg>
